<?xml version="1.0" encoding="utf-8"?>
<!-- Generator: Adobe Illustrator 25.0.1, SVG Export Plug-In . SVG Version: 6.00 Build 0)  -->
<svg version="1.1" id="Layer_1" xmlns="http://www.w3.org/2000/svg" xmlns:xlink="http://www.w3.org/1999/xlink" x="0px" y="0px"
	 viewBox="0 0 512 512" style="enable-background:new 0 0 512 512;" xml:space="preserve">
<style type="text/css">
	.st0{fill:#FFFFFF;}
</style>
<path d="M448.92,512H63.08C28.24,512,0,483.76,0,448.92V63.08C0,28.24,28.24,0,63.08,0h385.84C483.76,0,512,28.24,512,63.08v385.84
	C512,483.76,483.76,512,448.92,512z"/>
<path class="st0" d="M271.66,24.69V99.6c0,0.26,0.1,0.5,0.28,0.69l91.25,91.25c0.61,0.61,0.18,1.66-0.69,1.66H149.75
	c-0.86,0-1.3-1.05-0.69-1.66l91.25-91.25c0.18-0.18,0.28-0.43,0.28-0.69V24.69c0-0.86-1.05-1.3-1.66-0.69L24.81,238.13
	c-0.61,0.61-0.18,1.66,0.69,1.66h461.25c0.86,0,1.3-1.05,0.69-1.66L273.31,24C272.7,23.39,271.66,23.83,271.66,24.69z"/>
<path class="st0" d="M25.27,270.85h461.71c0.83,0,1.28,0.97,0.74,1.6L303.01,487.94c-0.18,0.22-0.45,0.34-0.74,0.34h-92.29
	c-0.28,0-0.55-0.12-0.74-0.34L24.53,272.45C23.99,271.82,24.44,270.85,25.27,270.85z M271.94,425.85l99.15-106.78
	c0.58-0.62,0.14-1.63-0.71-1.63H141.87c-0.85,0-1.29,1.01-0.71,1.63l99.15,106.78c0.18,0.2,0.44,0.31,0.71,0.31h30.22
	C271.5,426.16,271.76,426.04,271.94,425.85z"/>
</svg>
