<?xml version="1.0" encoding="utf-8"?>
<!-- Generator: Adobe Illustrator 25.0.1, SVG Export Plug-In . SVG Version: 6.00 Build 0)  -->
<svg version="1.1" id="Layer_1" xmlns="http://www.w3.org/2000/svg"
    xmlns:xlink="http://www.w3.org/1999/xlink" x="0px" y="0px"
    viewBox="0 0 22 22" xml:space="preserve">
<g>
    <path d="M7.9,13.2C7.9,13.2,7.9,13.3,7.9,13.2l2.7,2.9c0,0,0,0,0,0h0.8c0,0,0,0,0,0l2.7-2.9c0,0,0,0,0,0H7.9z"/>
    <path d="M20,3H2C0.9,3,0,3.9,0,5v12c0,1.1,0.9,2,2,2h18c1.1,0,2-0.9,2-2V5C22,3.9,21.1,3,20,3z M12.3,17.8
        C12.3,17.8,12.3,17.8,12.3,17.8l-2.5,0c0,0,0,0,0,0l-5-5.8c0,0,0,0,0,0h12.4c0,0,0,0,0,0L12.3,17.8z M17.2,10.2H4.8c0,0,0,0,0,0
        l5.8-5.8c0,0,0,0,0,0v2c0,0,0,0,0,0L8.1,8.9c0,0,0,0,0,0h5.7c0,0,0,0,0,0l-2.5-2.5c0,0,0,0,0,0v-2c0,0,0,0,0.1,0L17.2,10.2
        C17.3,10.2,17.2,10.2,17.2,10.2z"/>
</g>
</svg>
