<?xml version="1.0" encoding="utf-8"?>
<!-- Generator: Adobe Illustrator 25.0.1, SVG Export Plug-In . SVG Version: 6.00 Build 0)  -->
<svg version="1.1" id="Layer_1" xmlns="http://www.w3.org/2000/svg" xmlns:xlink="http://www.w3.org/1999/xlink" x="0px" y="0px"
	 viewBox="0 0 22 22" style="enable-background:new 0 0 22 22;" xml:space="preserve">
<style type="text/css">
	.st0{fill:#E9EAEA;}
	.st1{fill:#292C31;}
</style>
<path class="st0" d="M20,19H2c-1.1,0-2-0.9-2-2V5c0-1.1,0.9-2,2-2h18c1.1,0,2,0.9,2,2v12C22,18.1,21.1,19,20,19z"/>
<path class="st1" d="M11.42,4.43v2.02c0,0.01,0,0.01,0.01,0.02l2.46,2.46c0.02,0.02,0,0.04-0.02,0.04H8.14
	c-0.02,0-0.03-0.03-0.02-0.04l2.46-2.46c0,0,0.01-0.01,0.01-0.02V4.43c0-0.02-0.03-0.03-0.04-0.02l-5.76,5.76
	c-0.02,0.02,0,0.04,0.02,0.04h12.42c0.02,0,0.03-0.03,0.02-0.04l-5.76-5.76C11.45,4.39,11.42,4.4,11.42,4.43z"/>
<path class="st1" d="M4.79,11.98h12.43c0.02,0,0.03,0.03,0.02,0.04l-4.97,5.8c0,0.01-0.01,0.01-0.02,0.01H9.76
	c-0.01,0-0.01,0-0.02-0.01l-4.97-5.8C4.76,12.01,4.77,11.98,4.79,11.98z M11.43,16.15l2.67-2.87c0.02-0.02,0-0.04-0.02-0.04H7.93
	c-0.02,0-0.03,0.03-0.02,0.04l2.67,2.87c0,0.01,0.01,0.01,0.02,0.01h0.81C11.42,16.16,11.43,16.16,11.43,16.15z"/>
</svg>
